<?xml version="1.0" standalone="no"?>
<!DOCTYPE svg PUBLIC "-//W3C//DTD SVG 20010904//EN"
 "http://www.w3.org/TR/2001/REC-SVG-20010904/DTD/svg10.dtd">
<svg version="1.0" xmlns="http://www.w3.org/2000/svg"
 width="256.000000pt" height="256.000000pt" viewBox="0 0 256.000000 256.000000"
 preserveAspectRatio="xMidYMid meet">

<g transform="translate(0.000000,256.000000) scale(0.100000,-0.100000)"
fill="#000000" stroke="none">
<path d="M1125 2549 c-560 -76 -992 -483 -1102 -1037 -23 -118 -23 -346 0
-464 52 -264 167 -479 357 -668 251 -251 546 -374 900 -374 338 0 633 116 875
346 263 248 399 566 399 928 0 219 -38 381 -135 576 -174 349 -509 602 -899
679 -96 19 -305 27 -395 14z m110 -566 c-15 -102 -80 -188 -162 -214 -21 -7
-120 -14 -228 -16 -119 -3 -195 -9 -204 -16 -41 -34 -29 -107 22 -133 24 -13
49 -15 131 -10 142 9 280 -6 343 -37 67 -34 146 -123 174 -195 33 -85 31 -188
-6 -270 -36 -79 -120 -161 -202 -194 -56 -22 -67 -23 -348 -23 -159 0 -303 4
-318 8 -16 4 -48 26 -73 49 -50 46 -184 255 -184 287 0 12 9 30 20 41 19 19
33 20 243 20 261 0 288 -7 335 -84 l27 -45 93 -1 c51 0 102 5 114 11 45 24 55
110 16 136 -7 4 -101 11 -208 14 -241 7 -282 19 -376 113 -80 80 -107 147
-108 266 0 74 3 92 27 140 45 88 119 155 206 186 26 10 120 13 355 14 l318 0
-7 -47z m1125 -390 c0 -97 -39 -175 -103 -211 -28 -15 -70 -18 -306 -22 l-274
-5 50 -31 c36 -22 56 -44 72 -78 l23 -46 269 0 269 0 0 -43 c0 -108 -58 -204
-135 -226 -23 -6 -120 -11 -222 -11 l-183 0 0 -260 0 -261 -25 -24 c-30 -31
-40 -31 -101 1 -112 59 -216 137 -245 182 l-29 46 0 476 c0 525 -3 500 64 541
29 18 55 19 454 19 l422 0 0 -47z"/>
<path d="M331 1089 c62 -93 88 -124 114 -135 26 -11 86 -14 246 -14 l211 0
-50 45 c-28 25 -73 81 -101 125 -28 44 -60 84 -71 90 -11 6 -103 10 -225 10
l-205 0 81 -121z"/>
<path d="M1483 1028 l2 -416 24 -26 c24 -25 129 -100 204 -145 l38 -23 -3 400
c-3 459 7 415 -109 483 -69 40 -112 77 -141 119 -17 24 -17 4 -15 -392z"/>
</g>
</svg>
